<svg width="69" height="46" viewBox="0 0 60 40" fill="none" xmlns="http://www.w3.org/2000/svg">
    <g clip-path="url(#clip0_11_9)">
        <path fill-rule="evenodd" clip-rule="evenodd"
            d="M59.7676 19.9253L30.0194 40L0.232422 20L30.0194 0L59.7676 19.9253Z" fill="#FEFEFE" />
        <path fill-rule="evenodd" clip-rule="evenodd"
            d="M2.88599 20L30.0203 1.7811L51.2139 16.0111H46.1196L30.0203 5.20189L7.9803 20H35.5589H52.0606H57.1549L30.0203 38.2188L2.88599 20Z"
            fill="#3E4095" />
        <path fill-rule="evenodd" clip-rule="evenodd"
            d="M19.3616 16.4537V16.2824C19.3616 15.9506 19.2951 15.7316 19.1635 15.6261C19.0832 15.563 18.985 15.5205 18.8711 15.5016C18.7568 15.4844 18.6081 15.4732 18.4255 15.4732H18.318C18.2289 15.4762 18.1053 15.4784 17.9468 15.4845C17.7895 15.4875 17.6465 15.4972 17.519 15.5144C17.3899 15.5302 17.2745 15.5564 17.1708 15.5923C17.0689 15.6274 16.9833 15.676 16.915 15.7391C16.775 15.8917 16.7056 16.1081 16.7056 16.3881V17.841C16.7056 18.1521 16.7293 18.3888 16.775 18.5534C16.8222 18.7174 16.8894 18.8356 16.9795 18.9106C17.0459 18.972 17.1161 19.0162 17.1888 19.0416C17.2624 19.067 17.3428 19.0841 17.4311 19.0915C17.5189 19.0977 17.6118 19.105 17.7095 19.1126C17.794 19.1029 17.9011 19.0989 18.0324 19.0989C18.3546 19.0989 18.5809 19.0946 18.713 19.0872C18.9722 19.0608 19.1533 19.0026 19.2578 18.9106C19.3536 18.8282 19.408 18.694 19.4227 18.5092C19.4317 18.4023 19.4362 18.2345 19.4362 18.0018H19.9704V18.2555C19.9704 18.4763 19.9538 18.6634 19.9176 18.8186C19.8829 18.9741 19.8055 19.1082 19.683 19.2212C19.5501 19.3544 19.3845 19.4411 19.1849 19.4793C18.9858 19.5174 18.7457 19.5363 18.4655 19.5363H18.1214H17.5883C17.3698 19.5363 17.1861 19.5129 17.0349 19.4696C16.8858 19.4254 16.7247 19.3355 16.5527 19.198C16.4444 19.106 16.3535 18.9674 16.2807 18.7787C16.2078 18.5916 16.1724 18.3888 16.1724 18.1701V16.4305C16.1724 16.0033 16.267 15.6843 16.458 15.4732C16.6281 15.2869 16.8477 15.1686 17.1159 15.1156C17.3835 15.0639 17.7102 15.0363 18.095 15.0363H18.2671C18.5572 15.0363 18.7627 15.042 18.8903 15.0512C19.1634 15.0745 19.3781 15.1476 19.5309 15.2681C19.6864 15.3851 19.7874 15.5341 19.835 15.7128C19.8821 15.8925 19.9067 16.1028 19.9067 16.3425V16.4538H19.3615L19.3616 16.4537ZM21.7693 18.1477H23.8768L22.8114 15.4867L21.7693 18.1477ZM22.4235 15.0735H23.1788L24.9694 19.4995H24.411L24.0232 18.5662H21.6173L21.248 19.4995H20.6904L22.4236 15.0735H22.4235ZM29.0277 16.4538V16.2825C29.0277 15.9507 28.9612 15.7317 28.8304 15.6262C28.7493 15.5631 28.6512 15.5206 28.5372 15.5017C28.4225 15.4845 28.2742 15.4733 28.0924 15.4733H27.9849C27.8959 15.4763 27.7722 15.4785 27.6137 15.4846C27.4564 15.4876 27.3134 15.4973 27.1862 15.5145C27.0568 15.5302 26.9403 15.5565 26.8376 15.5924C26.7347 15.6275 26.6494 15.6761 26.5819 15.7392C26.4419 15.8917 26.3725 16.1081 26.3725 16.3882V17.8411C26.3725 18.1521 26.3955 18.3889 26.4419 18.5535C26.489 18.7175 26.5566 18.8357 26.6456 18.9107C26.712 18.972 26.7822 19.0163 26.855 19.0417C26.9293 19.0671 27.0097 19.0841 27.0979 19.0916C27.1862 19.0977 27.279 19.1051 27.3764 19.1127C27.4601 19.103 27.5672 19.099 27.6993 19.099C28.0204 19.099 28.2478 19.0946 28.3799 19.0873C28.6384 19.0609 28.8201 19.0027 28.9251 18.9107C29.0205 18.8283 29.0753 18.6941 29.0896 18.5093C29.0979 18.4024 29.1031 18.2345 29.1031 18.0019H29.6366V18.2556C29.6366 18.4764 29.62 18.6635 29.5845 18.8187C29.5502 18.9741 29.4718 19.1083 29.3499 19.2213C29.2171 19.3545 29.0503 19.4412 28.8523 19.4794C28.6527 19.5175 28.4127 19.5363 28.1312 19.5363H27.7883H27.2544C27.0367 19.5363 26.8519 19.513 26.7022 19.4697C26.5527 19.4255 26.3916 19.3356 26.2196 19.1981C26.1106 19.106 26.0205 18.9675 25.9476 18.7788C25.8748 18.5917 25.8386 18.3889 25.8386 18.1702V16.4306C25.8386 16.0034 25.9333 15.6844 26.1249 15.4733C26.2943 15.287 26.5147 15.1687 26.7821 15.1157C27.0504 15.064 27.3771 15.0364 27.7612 15.0364H27.9339C28.2233 15.0364 28.4289 15.0421 28.5572 15.0513C28.8303 15.0746 29.0442 15.1477 29.1978 15.2682C29.3536 15.3852 29.4543 15.5342 29.5018 15.7129C29.549 15.8926 29.5728 16.1029 29.5728 16.3426V16.4539H29.0276L29.0277 16.4538ZM30.7621 15.0735H31.308V17.0212H34.0998V15.0735H34.6336V19.4995H34.0998V17.4576H31.308V19.4995H30.7621V15.0735ZM35.8877 19.4995V15.0735H38.9458V15.5099H36.42V17.019H38.8383V17.433H36.42V19.063H38.9458V19.4994H35.8877V19.4995ZM41.2981 19.4995V15.5099H39.7603V15.0735H43.3799V15.5099H41.8441V19.4995H41.2981Z"
            fill="#FA0B12" stroke="#ED3237" stroke-width="0.0608341" stroke-miterlimit="2.61313" />
    </g>
    <defs>
        <clipPath id="clip0_11_9">
            <rect width="60" height="40" fill="white" />
        </clipPath>
    </defs>
</svg>