<?xml version="1.0" encoding="utf-8"?>
<!-- Generator: Adobe Illustrator 26.0.3, SVG Export Plug-In . SVG Version: 6.00 Build 0)  -->
<svg version="1.0" id="Layer_1" xmlns="http://www.w3.org/2000/svg" xmlns:xlink="http://www.w3.org/1999/xlink" x="0px" y="0px"
	 viewBox="0 0 866.7 680" style="enable-background:new 0 0 866.7 680;" xml:space="preserve">
<style type="text/css">
	.st0{fill:#FF4612;}
	.st1{fill:#253646;}
</style>
<path class="st0" d="M186,490.3c27.7-25.2,67.1-100.4,67.8-157.4c-6.4,1.9-19.1,8.7-23.8,29.8c-2.7,12.1-10.3,40.7-38.2,38.2
	c-38.7-3.4-33.1-76.6,27.5-70c28.7,3.1,33.3-17.5,33.3-20.2c-6.3,2.9-15.7,1.7-24.6,0.6c-54.6-6.6-80.9,24.7-80.9,60.4
	c0,21.4,13.9,39.4,29.6,49.5c8.4,5.3,2.4,10.5-3.9,6c-16.5-11.9-35.8-27.7-35.8-61.3c0-56.1,57.2-80.5,70.7-90.5
	c19.9-14.9,29.6-27.1,24.7-49c-7.9,14.5-27.3,27.2-41.7,34.9c-39.1,20.8-69.7,51-69.7,95.4c0,35,15.3,54.1,33.8,69
	c4.2,3.4-0.2,8.1-5.6,3.8c-29.3-23.6-39-49.8-39-83.5c0-63.6,80.1-121.1,44.1-166.9c0.5,46.8-60,87.6-60,164.9
	c0,34.7,13.9,69.2,52.8,96.5c22.9,16.1,26.2,34.4,22.8,51.1C168.5,500.7,179.3,496.4,186,490.3"/>
<path class="st1" d="M728.3,365.4c0-19.5-9.1-26.9-28.8-26.9c-14.7,0-28.5,5.4-28.5,10.9c0,1.9,1.7,6.8,4.6,10c7-4,13-6.8,20.9-6.8
	c12.6,0,12.8,5.8,12.8,12.9c-20.6,0-42.7,4.3-42.7,24.9c0,13.7,8.2,22.1,22.5,22.1c10,0,15.5-3.7,21.6-7.7
	c2.6,8.4,14.4,7.2,20.7,4.5c-2.3-3.8-3-7.8-3-16.8L728.3,365.4L728.3,365.4z M709.1,392.9c-4,3.8-8.3,5.9-13.5,5.9
	c-12.4,0-13-13.8-5.6-18.8c4.6-3.1,13.2-4.1,19.1-4.1V392.9z"/>
<path class="st1" d="M536,365.4c0-19.5-9.1-26.9-28.8-26.9c-14.7,0-28.5,5.4-28.5,10.9c0,1.9,1.7,6.8,4.6,10c7-4,12.9-6.8,20.9-6.8
	c12.6,0,12.8,5.8,12.8,12.9c-20.6,0-42.7,4.3-42.7,24.9c0,13.7,8.2,22.1,22.5,22.1c10,0,15.5-3.7,21.6-7.7
	c2.6,8.4,14.5,7.2,20.7,4.5c-2.4-3.8-3-7.8-3-16.8L536,365.4L536,365.4z M516.9,392.9c-4,3.8-8.3,5.9-13.5,5.9
	c-12.4,0-13-13.8-5.6-18.8c4.6-3.1,13.1-4.1,19.1-4.1V392.9z"/>
<path class="st1" d="M336.8,310.6h-26.5v100.2c2.6,0.4,5.2,0.6,7.8,0.6c8.2-0.2,12.3-3.5,12.3-11V375h7.5
	c22.8,0,39.7-10.1,39.7-34.4C377.6,317.5,358.1,310.6,336.8,310.6 M330.3,360.7v-35.3c14.1-1.3,26.6,1.2,26.6,16.2
	C357,360.4,344,360.7,330.3,360.7"/>
<path class="st1" d="M409,400.3c0,7.5-4.1,10.8-12.3,11c-2.6,0.1-5.2-0.1-7.7-0.6V351c0-7.5,4.1-10.8,12.3-11c2.6,0,5.2,0.1,7.8,0.6
	L409,400.3z"/>
<path class="st1" d="M635.3,373c0-9-0.2-11.4-0.9-13.4c-3.1-8.5-21.1-6-21.1,2.8v38c0,7.5-4,10.8-12.2,11c-2.6,0.1-5.2-0.1-7.8-0.6
	V373c0-9-0.2-11.5-0.9-13.4c-3.1-8.5-21.1-6-21.1,2.8v38c0,7.5-4.1,10.8-12.2,11c-2.6,0-5.2-0.1-7.7-0.6v-70.2c8.2-1.2,17.3-1,19,7
	c8-11.3,35.2-13.9,40.4,3.1c4.8-9.2,15.5-12.9,25.6-12c17.2,1.5,19,15.6,19,32.8v29c0,7.5-4.1,10.8-12.3,11c-2.6,0-5.2-0.1-7.7-0.6
	L635.3,373L635.3,373z"/>
<path class="st1" d="M424.4,410.8c2.6,0.4,5.1,0.6,7.7,0.6c8.2-0.2,12.3-3.6,12.3-11v-35.5c0-7.7,11.6-13.1,21.6-4.7
	c2.5-4.1,4.9-10.6,4.9-14.4c0-8.2-17.3-11.8-27.4,1.7c-1.9-7.7-11.2-8.2-19.1-6.9L424.4,410.8z"/>
<path class="st1" d="M763.3,311.1c-2.2-0.4-4.5-0.6-6.8-0.6c-8.8,0-13.2,3.3-13.2,11v89.2c2.6,0.4,5.1,0.6,7.7,0.6
	c8.2-0.2,12.3-3.5,12.3-11V311.1z"/>
<path class="st1" d="M400.4,313.1c-5.4,0-9.7,4.4-9.7,9.8s4.4,9.7,9.8,9.7s9.7-4.4,9.7-9.8c0-0.9-0.1-1.7-0.4-2.6
	C408.6,316,404.8,313.1,400.4,313.1"/>
</svg>
